<svg width="453" height="50" viewBox="0 0 453 50" fill="none" xmlns="http://www.w3.org/2000/svg">
<path d="M0.486572 13.3333C0.486572 5.96954 6.45611 0 13.8199 0H37.1532C44.517 0 50.4866 5.96954 50.4866 13.3333V36.6667C50.4866 44.0305 44.517 50 37.1532 50H13.8199C6.45611 50 0.486572 44.0305 0.486572 36.6667V13.3333Z" fill="#4C57E2"/>
<path fill-rule="evenodd" clip-rule="evenodd" d="M16.4132 11.5531C16.4132 13.025 15.2108 14.2182 13.7276 14.2182C12.2444 14.2182 11.042 13.025 11.042 11.5531C11.042 10.0813 12.2444 8.88808 13.7276 8.88808C15.2108 8.88808 16.4132 10.0813 16.4132 11.5531ZM37.9248 9.34192C38.3452 9.51934 38.7176 9.79265 39.0117 10.1396C39.2562 10.5128 39.4088 10.9379 39.4569 11.3804C39.505 11.823 39.4474 12.2705 39.2887 12.6869C39.023 13.5341 38.6781 14.3645 38.3445 15.1556L38.1014 15.7166C37.7713 16.5289 37.4394 17.3278 37.1032 18.1367C36.8635 18.7135 36.6217 19.2954 36.377 19.891C36.1314 20.4885 35.8819 21.0791 35.6334 21.6674C35.2869 22.4878 34.9422 23.3036 34.613 24.127C33.9914 25.6023 33.3855 27.0744 32.779 28.5481C32.5689 29.0584 32.3588 29.569 32.1479 30.0799C30.8837 33.1142 29.6289 36.1392 28.3622 39.1929L27.981 40.1118C27.7565 40.7227 27.3503 41.2516 26.8162 41.6283C26.2821 42.005 25.6453 42.2119 24.9901 42.2214C24.2424 42.2041 23.5173 41.9636 22.9095 41.5313C22.5879 41.3018 22.3356 40.9895 22.1801 40.628C21.9646 40.127 21.7452 39.62 21.5236 39.108C20.6756 37.1485 19.7959 35.1155 18.98 33.0648L18.9252 32.9355C18.809 32.6615 18.6959 32.3946 18.5786 32.1278C18.0662 30.9307 16.6769 27.4231 16.0854 25.9299L15.9891 25.6868L15.9552 25.5858C15.8252 25.2435 15.6782 24.9125 15.5312 24.5815C15.4925 24.488 15.4536 24.3946 15.4147 24.3011C15.2199 23.8335 15.0252 23.3659 14.8697 22.8983C14.276 21.086 15.1919 20.1603 15.7573 19.7788C16.1887 19.4855 16.6988 19.3272 17.2217 19.3243C17.6533 19.3284 18.0767 19.4418 18.4518 19.6539C18.8268 19.8661 19.141 20.1697 19.3645 20.5362C19.4444 20.6527 19.5162 20.7746 19.5793 20.9009C19.9644 21.6045 20.286 22.3405 20.5405 23.1003C20.6705 23.4313 20.7949 23.7736 20.9419 24.1046C21.3134 24.9813 22.0176 26.77 22.6595 28.4004C23.1021 29.5247 23.515 30.5736 23.7688 31.1964C24.1816 32.1334 24.5547 33.0816 24.8996 34.0411L25.5555 32.4925L27.4891 27.9086C27.6618 27.4646 27.8563 27.0151 28.0499 26.5678C28.1352 26.3707 28.2203 26.1741 28.3032 25.9785C28.3871 25.7783 28.4712 25.5778 28.5554 25.3769C29.2834 23.6411 30.0214 21.8811 30.7005 20.121C31.3111 18.5444 31.9783 16.9566 32.6228 15.4249L33.143 14.1681C32.937 14.1393 32.7289 14.128 32.521 14.1344H27.2912H23.7801C22.8812 14.1232 21.5356 14.1008 20.8684 12.7823C20.7182 12.4879 20.6283 12.1668 20.6039 11.8377C20.5795 11.5087 20.6211 11.1781 20.7263 10.865C20.8314 10.552 20.9981 10.2627 21.2166 10.014C21.435 9.76526 21.701 9.56195 21.9992 9.41586C22.5693 9.18018 23.1865 9.07841 23.8028 9.11851H36.5918C37.0477 9.08796 37.5043 9.1645 37.9248 9.34192Z" fill="white"/>
<path d="M92.2783 5.55537C91.0558 5.55537 90 6.61092 90 7.83315V42.1665C90 43.3887 91.0558 44.4443 92.2783 44.4443C93.5564 44.4443 94.6123 43.3887 94.6123 42.1665V7.83315C94.6123 6.61092 93.5564 5.55537 92.2783 5.55537Z" fill="#5760E4"/>
<path d="M150.688 14.7776C150.021 14.7776 149.243 15.222 148.854 15.7776L139.741 28.6109L124.07 6.49981C123.626 5.94425 122.959 5.55537 122.181 5.55537H121.07C119.847 5.55537 118.791 6.61092 118.791 7.83315V42.1665C118.791 43.3887 119.847 44.4443 121.07 44.4443C122.348 44.4443 123.404 43.3887 123.404 42.1665V12.8332L138.018 33.4443C138.852 34.6665 140.63 34.6665 141.464 33.4443L152.355 18.1109C153.356 16.722 152.355 14.8332 150.688 14.7776V14.7776ZM158.412 5.55537C157.134 5.55537 156.078 6.61092 156.078 7.83315V42.1665C156.078 43.3887 157.134 44.4443 158.412 44.4443C159.635 44.4443 160.691 43.3887 160.691 42.1665V7.83315C160.691 6.61092 159.635 5.55537 158.412 5.55537Z" fill="#5760E4"/>
<path d="M213.525 5.55537H196.632C195.354 5.55537 194.298 6.55537 194.298 7.83315C194.298 9.11093 195.354 10.1665 196.632 10.1665H209.802L199.41 35.4998L198.688 37.1665L198.021 35.4998L186.352 7.05536C185.963 6.11092 185.129 5.55537 184.129 5.55537C182.462 5.55537 181.295 7.27759 181.906 8.83314L195.91 42.9443C196.298 43.8332 197.132 44.4443 198.132 44.4443H199.299C200.244 44.4443 201.133 43.8332 201.522 42.9443L215.47 8.83314C216.137 7.33314 215.081 5.72203 213.525 5.55537Z" fill="#5760E4"/>
<path d="M237.593 10.1665H257.376C258.654 10.1665 259.71 9.11093 259.71 7.83315C259.71 6.61092 258.654 5.55537 257.376 5.55537H237.593C236.37 5.55537 235.314 6.61092 235.314 7.83315C235.314 9.11093 236.37 10.1665 237.593 10.1665ZM257.376 39.8332H239.927V26.5554H254.375C255.653 26.5554 256.709 25.5554 256.709 24.2776C256.709 22.9998 255.653 21.9443 254.375 21.9443H237.593C236.37 21.9443 235.314 22.9998 235.314 24.2776V42.1665C235.314 43.3887 236.37 44.4443 237.593 44.4443H257.376C258.654 44.4443 259.71 43.3887 259.71 42.1665C259.71 40.8887 258.654 39.8332 257.376 39.8332V39.8332Z" fill="#5760E4"/>
<path d="M307.956 16.9998C307.956 10.722 302.788 5.55537 296.453 5.55537H282.561C281.339 5.55537 280.283 6.61092 280.283 7.83315C280.283 9.11093 281.339 10.1665 282.561 10.1665H296.453C300.232 10.1665 303.344 13.222 303.344 16.9998C303.344 20.7776 300.232 23.8887 296.453 23.8887H282.561C281.339 23.8887 280.338 24.8331 280.283 26.0554V42.1665C280.283 43.3887 281.339 44.4443 282.561 44.4443C283.839 44.4443 284.895 43.3887 284.895 42.1665V28.4998H296.453C302.788 28.4998 307.956 23.3332 307.956 16.9998ZM301.788 32.8887C301.399 32.1665 300.677 31.7776 299.899 31.7776C298.121 31.7776 297.065 33.6665 297.954 35.1109L302.788 43.3332C303.177 43.9998 303.9 44.4443 304.678 44.4443C306.456 44.4443 307.512 42.5554 306.623 41.0554L301.788 32.8887Z" fill="#5760E4"/>
<path d="M342.311 22.5C336.531 20.6667 333.808 19.4444 333.808 16.2222C333.808 12.3333 336.865 9.61111 341.255 9.61111C344.756 9.61111 347.701 12 348.479 15.2778C348.757 16.2778 349.646 17.0556 350.702 17.0556C352.258 17.0556 353.313 15.6111 352.924 14.1667C351.646 8.88889 346.867 5 341.255 5C334.364 5 329.196 9.83333 329.196 16.2222C329.196 23.1667 335.698 25.2222 340.866 26.8889C346.812 28.7778 349.59 30.0556 349.59 33.4444C349.59 38.2778 345.478 40.3889 341.477 40.3889C337.587 40.3889 334.309 37.6667 333.531 34.0556C333.308 33 332.364 32.2778 331.252 32.2778C329.807 32.2778 328.696 33.6667 329.03 35.1111C330.308 40.7778 335.42 45 341.477 45C348.812 45 354.203 40.1667 354.203 33.4444C354.203 26.3333 347.59 24.2222 342.311 22.5V22.5Z" fill="#5760E4"/>
<path d="M377.678 10.1665H397.46C398.738 10.1665 399.794 9.11093 399.794 7.83315C399.794 6.61092 398.738 5.55537 397.46 5.55537H377.678C376.455 5.55537 375.399 6.61092 375.399 7.83315C375.399 9.11093 376.455 10.1665 377.678 10.1665ZM397.46 39.8332H380.011V26.5554H394.46C395.738 26.5554 396.793 25.5554 396.793 24.2776C396.793 22.9998 395.738 21.9443 394.46 21.9443H377.678C376.455 21.9443 375.399 22.9998 375.399 24.2776V42.1665C375.399 43.3887 376.455 44.4443 377.678 44.4443H397.46C398.738 44.4443 399.794 43.3887 399.794 42.1665C399.794 40.8887 398.738 39.8332 397.46 39.8332V39.8332Z" fill="#5760E4"/>
<path d="M423.59 5.55537C422.368 5.55537 421.312 6.61092 421.312 7.83315V42.1665C421.312 43.3887 422.368 44.4443 423.59 44.4443C424.868 44.4443 425.924 43.3887 425.924 42.1665V7.83315C425.924 6.61092 424.868 5.55537 423.59 5.55537ZM433.648 5.55537H432.259C430.981 5.55537 429.925 6.61092 429.925 7.83315C429.925 9.11093 430.981 10.1665 432.259 10.1665H433.648C441.484 10.1665 447.874 16.8332 447.874 24.9998C447.874 33.1665 441.484 39.8332 433.648 39.8332H432.259C430.981 39.8332 429.925 40.8887 429.925 42.1665C429.925 43.3887 430.981 44.4443 432.259 44.4443H433.648C444.04 44.4443 452.487 35.7221 452.487 24.9998C452.487 14.2776 444.04 5.55537 433.648 5.55537V5.55537Z" fill="#5760E4"/>
</svg>
